<?xml version="1.0" standalone="no"?>
<!DOCTYPE svg PUBLIC "-//W3C//DTD SVG 20010904//EN"
 "http://www.w3.org/TR/2001/REC-SVG-20010904/DTD/svg10.dtd">
<svg version="1.0" xmlns="http://www.w3.org/2000/svg"
 width="521.000000pt" height="479.000000pt" viewBox="0 0 521.000000 479.000000"
 preserveAspectRatio="xMidYMid meet">

<g transform="translate(0.000000,479.000000) scale(0.100000,-0.100000)"
fill="#ffffff" stroke="none">
<path d="M1056 4703 c-3 -4 -6 -714 -6 -1580 l0 -1573 235 0 235 0 2 1338 3
1337 700 0 c663 -1 709 -2 861 -23 165 -22 393 -76 499 -117 42 -16 99 -27
190 -34 174 -16 285 -35 434 -77 171 -48 285 -107 430 -224 49 -38 48 -36 -17
60 -157 231 -387 460 -561 561 -229 133 -335 177 -561 234 -335 84 -470 93
-1561 99 -482 3 -879 2 -883 -1z"/>
<path d="M250 2405 l0 -1495 1223 0 c714 0 1288 4 1382 10 350 22 620 94 792
211 242 165 440 467 527 804 74 292 61 754 -30 1036 -60 189 -69 199 -184 233
-63 19 -250 42 -420 52 l-115 6 51 -53 c114 -120 205 -297 246 -480 20 -92 23
-130 23 -324 0 -193 -3 -233 -23 -323 -30 -132 -80 -252 -152 -361 -156 -235
-319 -305 -773 -331 -112 -7 -544 -10 -1127 -8 l-945 3 0 1020 0 1020 78 3 77
3 0 234 0 235 -315 0 -315 0 0 -1495z"/>
<path d="M1690 3666 l0 -235 978 -4 c846 -3 994 -6 1107 -20 292 -38 414 -92
536 -234 215 -251 282 -594 219 -1108 -50 -399 -222 -761 -489 -1025 -207
-206 -386 -307 -660 -375 -290 -72 -402 -79 -1186 -80 l-670 0 -3 78 -3 77
-234 0 -235 0 0 -316 0 -316 953 5 c806 4 971 7 1077 21 600 78 941 223 1264
535 291 283 503 654 605 1061 40 161 57 279 72 487 26 387 -24 698 -159 970
-69 140 -133 232 -230 334 -203 214 -379 294 -782 356 -90 14 -249 17 -1132
20 l-1028 4 0 -235z"/>
</g>
</svg>
