<?xml version="1.0" encoding="UTF-8"?>
<svg xmlns="http://www.w3.org/2000/svg" xmlns:xlink="http://www.w3.org/1999/xlink" width="35px" height="32px" viewBox="0 0 34 32" version="1.1">
<g id="surface1">
<path style=" stroke:none;fill-rule:nonzero;fill:white;fill-opacity:1;" d="M 6.894531 0.582031 C 6.875 0.609375 6.855469 5.347656 6.855469 11.132812 L 6.855469 21.636719 L 9.921875 21.636719 L 9.9375 12.699219 L 9.957031 3.773438 L 14.527344 3.773438 C 18.855469 3.78125 19.15625 3.785156 20.148438 3.925781 C 21.222656 4.074219 22.710938 4.433594 23.40625 4.707031 C 23.679688 4.816406 24.050781 4.886719 24.644531 4.933594 C 25.78125 5.042969 26.503906 5.167969 27.476562 5.449219 C 28.59375 5.769531 29.339844 6.164062 30.285156 6.945312 C 30.605469 7.199219 30.597656 7.183594 30.175781 6.542969 C 29.148438 5 27.648438 3.472656 26.511719 2.796875 C 25.015625 1.910156 24.324219 1.617188 22.847656 1.234375 C 20.664062 0.675781 19.78125 0.613281 12.660156 0.574219 C 9.511719 0.554688 6.921875 0.5625 6.894531 0.582031 Z M 6.894531 0.582031 "/>
<path style=" stroke:none;fill-rule:nonzero;fill:white;fill-opacity:1;" d="M 1.632812 15.925781 L 1.632812 25.910156 L 9.617188 25.910156 C 14.277344 25.910156 18.023438 25.882812 18.636719 25.84375 C 20.921875 25.695312 22.6875 25.214844 23.808594 24.433594 C 25.390625 23.332031 26.683594 21.316406 27.25 19.066406 C 27.734375 17.113281 27.648438 14.03125 27.054688 12.148438 C 26.660156 10.886719 26.601562 10.816406 25.851562 10.589844 C 25.441406 10.464844 24.21875 10.308594 23.109375 10.242188 L 22.359375 10.203125 L 22.691406 10.558594 C 23.4375 11.359375 24.03125 12.539062 24.296875 13.761719 C 24.429688 14.378906 24.449219 14.632812 24.449219 15.925781 C 24.449219 17.214844 24.429688 17.484375 24.296875 18.082031 C 24.101562 18.964844 23.777344 19.765625 23.304688 20.496094 C 22.289062 22.0625 21.222656 22.53125 18.261719 22.703125 C 17.527344 22.75 14.707031 22.769531 10.902344 22.757812 L 4.734375 22.738281 L 4.734375 9.113281 L 5.242188 9.09375 L 5.746094 9.074219 L 5.746094 5.941406 L 1.632812 5.941406 Z M 1.632812 15.925781 "/>
<path style=" stroke:none;fill-rule:nonzero;fill:white;fill-opacity:1;" d="M 11.03125 7.503906 L 11.03125 9.074219 L 17.417969 9.101562 C 22.941406 9.121094 23.90625 9.140625 24.644531 9.234375 C 26.550781 9.488281 27.347656 9.851562 28.144531 10.796875 C 29.546875 12.472656 29.984375 14.765625 29.574219 18.195312 C 29.246094 20.863281 28.125 23.277344 26.382812 25.042969 C 25.03125 26.417969 23.863281 27.09375 22.074219 27.546875 C 20.179688 28.027344 19.449219 28.074219 14.328125 28.082031 L 9.957031 28.082031 L 9.9375 27.558594 L 9.917969 27.046875 L 6.855469 27.046875 L 6.855469 31.265625 L 13.078125 31.230469 C 18.339844 31.207031 19.414062 31.183594 20.109375 31.09375 C 24.023438 30.570312 26.25 29.601562 28.359375 27.519531 C 30.257812 25.628906 31.644531 23.152344 32.308594 20.433594 C 32.570312 19.359375 32.679688 18.570312 32.777344 17.183594 C 32.949219 14.597656 32.621094 12.519531 31.742188 10.703125 C 31.289062 9.769531 30.871094 9.15625 30.238281 8.472656 C 28.914062 7.046875 27.765625 6.511719 25.132812 6.097656 C 24.546875 6.003906 23.507812 5.984375 17.746094 5.964844 L 11.03125 5.9375 Z M 11.03125 7.503906 "/>
</g>
</svg>
